<?xml version="1.0" encoding="UTF-8" standalone="no"?>
<!DOCTYPE svg PUBLIC "-//W3C//DTD SVG 1.1//EN" "http://www.w3.org/Graphics/SVG/1.1/DTD/svg11.dtd">
<svg width="100%" height="100%" viewBox="0 0 64 64" version="1.1" xmlns="http://www.w3.org/2000/svg" xmlns:xlink="http://www.w3.org/1999/xlink" xml:space="preserve" xmlnsSerif="http://www.serif.com/" style="fill-rule:evenodd;clip-rule:evenodd;stroke-linejoin:round;stroke-miterlimit:2;">
    <g transform="matrix(1.6021,0,0,1.56725,-18.4047,-20.1097)">
        <path d="M11.488,29.887C11.488,29.887 11.414,21.488 20.719,16.029C30.025,10.57 37.406,13.637 37.447,14.17C37.447,14.17 36.033,24.958 38.231,31.344C40.379,37.587 42.105,40.75 45.969,44.855C46.014,44.903 45.964,19.424 45.964,19.424C52.981,28.687 53.74,38.089 45.354,47.696C36.381,40.548 26.527,37.465 15.474,39.902L36.893,52.498C31.239,56.429 15.107,50.034 12.111,39.468C12.089,39.389 33.355,29.479 35.327,15.989C35.34,15.898 11.488,29.887 11.488,29.887Z" style="fill:rgb(255,109,0);"/>
    </g>
</svg>
